<?xml version="1.0" encoding="UTF-8" standalone="no"?>
<svg
   xmlns:dc="http://purl.org/dc/elements/1.1/"
   xmlns:cc="http://creativecommons.org/ns#"
   xmlns:rdf="http://www.w3.org/1999/02/22-rdf-syntax-ns#"
   xmlns:svg="http://www.w3.org/2000/svg"
   xmlns="http://www.w3.org/2000/svg"
   xmlns:sodipodi="http://sodipodi.sourceforge.net/DTD/sodipodi-0.dtd"
   xmlns:inkscape="http://www.inkscape.org/namespaces/inkscape"
   height="128pt"
   viewBox="-25 0 128 128"
   width="128pt"
   version="1.1"
   id="svg4"
   sodipodi:docname="iconwhite.svg"
   inkscape:version="0.92.4 (5da689c313, 2019-01-14)">
  <metadata
     id="metadata10">
    <rdf:RDF>
      <cc:Work
         rdf:about="">
        <dc:format>image/svg+xml</dc:format>
        <dc:type
           rdf:resource="http://purl.org/dc/dcmitype/StillImage" />
        <dc:title></dc:title>
      </cc:Work>
    </rdf:RDF>
  </metadata>
  <defs
     id="defs8" />
  <sodipodi:namedview
     pagecolor="#ffffff"
     bordercolor="#666666"
     borderopacity="1"
     objecttolerance="10"
     gridtolerance="10"
     guidetolerance="10"
     inkscape:pageopacity="0"
     inkscape:pageshadow="2"
     inkscape:window-width="1920"
     inkscape:window-height="1027"
     id="namedview6"
     showgrid="false"
     inkscape:zoom="2.765625"
     inkscape:cx="4.2248459"
     inkscape:cy="50.520292"
     inkscape:window-x="-8"
     inkscape:window-y="-8"
     inkscape:window-maximized="1"
     inkscape:current-layer="svg4" />
  <path
     d="m 85.893705,135.4288 c -25.304595,0 -34.360966,-14.25055 -46.395423,-44.438532 l -23.90652,41.211282 c -0.54824,0.95332 -1.664259,1.54771 -2.909711,1.54771 H -8.8813133 c -0.4969588,0 -0.992697,-0.0973 -1.4347097,-0.28465 -1.606873,-0.67599 -2.273554,-2.34927 -1.487213,-3.72535 L 26.438159,55.20273 C 17.55762,19.35136 4.6171573,16.163875 -0.57831921,16.466298 -8.0180474,16.897435 -13.625009,24.44548 -14.194009,31.223335 c -0.128208,1.522582 -1.667924,2.672632 -3.457954,2.578451 l -5.52149,-0.311843 c -1.732641,-0.101497 -3.063562,-1.344688 -3.031815,-2.830645 0.07448,-3.3162 1.621526,-32.390762 33.2522739,-32.390762 22.7904971,0 37.7041421,36.157981 50.8595051,68.060048 10.130872,24.564366 19.700077,47.765206 30.017768,47.765206 9.119861,0 17.087071,-5.00412 17.855101,-9.30922 0.22345,-1.27039 1.42616,-2.24044 2.92559,-2.35347 l 5.76447,-0.42695 c 0.13796,-0.008 0.25153,-0.0136 0.36509,-0.008 1.80468,0.0534 3.21375,1.34574 3.1539,2.88088 -0.12332,3.12781 -2.09038,30.55212 -32.094725,30.55212 z M 39.762025,86.341937 c 0.0342,0 0.0696,0.0011 0.10379,0.0042 0.606852,0.03453 1.130672,0.381952 1.324818,0.876925 12.165104,31.011538 20.540141,45.622068 44.703075,45.622068 27.173992,0 28.970132,-25.18385 29.084902,-28.05532 0.005,-0.11201 -0.0989,-0.20719 -0.22955,-0.21138 l -5.78035,0.428 c -0.10502,0.008 -0.19292,0.0763 -0.20879,0.16638 -0.9695,5.43317 -10.08448,11.50572 -20.833197,11.50572 -12.449606,0 -21.907697,-22.933993 -32.857881,-49.488704 C 42.244377,36.095602 27.70925,0.85222046 7.0482249,0.85222046 c -28.7564439,0 -30.1703949,26.79957854 -30.2363309,29.85521154 -0.0013,0.107786 0.09402,0.19778 0.218564,0.205106 l 5.520271,0.311841 c 0.0013,0.0011 0.01221,0 0.0171,0 0.122101,0 0.225891,-0.08267 0.233216,-0.187314 0.658135,-7.827444 7.122261,-16.609252 16.41794982,-17.147126 7.42507278,-0.429043 21.23734918,4.346952 30.26930018,41.188264 0.06595,0.262659 0.03174,0.538921 -0.09523,0.784838 L -9.0693314,130.82652 c -0.083032,0.14754 -0.034186,0.26998 0.083032,0.32021 l 21.6695954,0.0199 c 0.08915,0 0.169723,-0.0419 0.210016,-0.10984 L 38.416453,87.058753 c 0.252753,-0.440556 0.777794,-0.716819 1.345572,-0.716822 z m 0,0"
     id="path2"
     inkscape:connector-curvature="0"
     style="fill:none;fill-opacity:1;stroke:none;stroke-width:0.28937572" />
  <path
     style="opacity:1;fill:#ffffff;fill-opacity:1;stroke:#000000;stroke-width:0;stroke-linecap:round;stroke-linejoin:bevel;stroke-miterlimit:4;stroke-dasharray:none;stroke-opacity:0.57856092"
     d="m 122.65811,166.86844 c -12.58353,-2.35733 -21.01066,-9.57935 -28.874131,-24.74502 -2.96687,-5.72197 -5.718584,-12.15734 -9.508516,-22.23729 -3.061185,-8.14175 -3.746195,-9.30137 -5.06014,-8.56605 -0.346486,0.1939 -6.986609,12.29144 -14.755822,26.8834 -7.769217,14.59197 -14.257486,26.73153 -14.418376,26.97681 -0.222253,0.33882 -3.19714,0.44595 -12.38418,0.44595 -6.65041,0 -12.091655,-0.11251 -12.091655,-0.25002 0,-0.13752 9.679259,-20.8426 21.509464,-46.0113 L 68.584214,73.603642 66.98002,67.407086 C 64.04818,56.082217 61.06412,47.878683 57.343684,40.915662 54.587526,35.757341 52.891052,33.424424 49.277493,29.823376 46.741567,27.29623 45.359923,26.236347 43.276968,25.220268 38.376045,22.829564 33.6671,22.725205 29.045131,24.904862 22.641186,27.924875 18.406571,34.183309 16.697106,43.154291 l -0.192132,1.008277 -3.153457,-0.104324 -3.153458,-0.10432 -0.116975,-1.435654 c -0.1824406,-2.239116 0.949773,-8.312274 2.320217,-12.445571 3.774475,-11.383924 10.771651,-18.42965 21.299583,-21.4473705 2.481894,-0.711409 3.714177,-0.8281294 8.677966,-0.8219667 5.173102,0.00642 6.003688,0.094628 7.848953,0.8335331 4.610191,1.8460721 9.987724,6.1281681 14.072511,11.2058521 9.066913,11.270826 16.877169,27.035023 28.732254,57.993088 2.307153,6.024837 5.908506,15.428824 8.003002,20.89775 11.88389,31.029865 19.29699,43.949675 27.5401,47.997835 1.82584,0.89666 2.39148,0.99304 5.64499,0.96186 4.54788,-0.0436 7.77487,-0.8136 11.9322,-2.84722 5.07514,-2.48258 8.98073,-6.23667 9.98882,-9.60136 0.46061,-1.53737 -0.0864,-1.354 5.83039,-1.95442 l 1.35593,-0.1376 v 1.55277 c 0,0.85402 -0.25577,2.90109 -0.56838,4.54903 -2.25739,11.90001 -8.08234,20.71358 -16.49712,24.96135 -1.13556,0.57323 -3.49596,1.47369 -5.24533,2.00104 -2.79673,0.84306 -3.92273,0.97288 -9.32759,1.07538 -4.36575,0.0828 -6.98273,-0.04 -9.03147,-0.42381 z"
     id="path869"
     inkscape:connector-curvature="0"
     transform="matrix(0.74999998,0,0,0.74999998,-25,0)" />
</svg>
